HIERARCHY
ROOT Hips
{
	OFFSET -0.001795 -0.223333 0.028219
	CHANNELS 6 Xposition Yposition Zposition Zrotation Yrotation Xrotation 
	JOINT LeftUpLeg
	{
		OFFSET 0.069520 -0.091406 -0.006815
		CHANNELS 3 Zrotation Yrotation Xrotation
		JOINT LeftLeg
		{
			OFFSET 0.034277 -0.375199 -0.004496
			CHANNELS 3 Zrotation Yrotation Xrotation
			JOINT LeftFoot
			{
				OFFSET -0.013596 -0.397961 -0.043693
				CHANNELS 3 Zrotation Yrotation Xrotation
				JOINT LeftToe
				{
					OFFSET 0.026358 -0.055791 0.119288
					CHANNELS 3 Zrotation Yrotation Xrotation
					End Site
					{
						OFFSET 0.000000 0.000000 0.000000
					}
				}
			}
		}
	}
	JOINT RightUpLeg
	{
		OFFSET -0.067670 -0.090522 -0.004320
		CHANNELS 3 Zrotation Yrotation Xrotation
		JOINT RightLeg
		{
			OFFSET -0.038290 -0.382569 -0.008850
			CHANNELS 3 Zrotation Yrotation Xrotation
			JOINT RightFoot
			{
				OFFSET 0.015774 -0.398415 -0.042312
				CHANNELS 3 Zrotation Yrotation Xrotation
				JOINT RightToe
				{
					OFFSET -0.025372 -0.048144 0.123348
					CHANNELS 3 Zrotation Yrotation Xrotation
					End Site
					{
						OFFSET 0.000000 0.000000 0.000000
					}
				}
			}
		}
	}
	JOINT Spine
	{
		OFFSET -0.002533 0.108963 -0.026696
		CHANNELS 3 Zrotation Yrotation Xrotation
		JOINT Spine1
		{
			OFFSET 0.005487 0.135180 0.001092
			CHANNELS 3 Zrotation Yrotation Xrotation
			JOINT Spine2
			{
				OFFSET 0.001457 0.052922 0.025425
				CHANNELS 3 Zrotation Yrotation Xrotation
				JOINT Neck
				{
					OFFSET -0.002778 0.213870 -0.042857
					CHANNELS 3 Zrotation Yrotation Xrotation
					JOINT Head
					{
						OFFSET 0.005152 0.064970 0.051349
						CHANNELS 3 Zrotation Yrotation Xrotation
						End Site
						{
							OFFSET 0.000000 0.000000 0.000000
						}
					}
				}
				JOINT LeftShoulder
				{
					OFFSET 0.078845 0.121749 -0.034090
					CHANNELS 3 Zrotation Yrotation Xrotation
					JOINT LeftArm
					{
						OFFSET 0.090977 0.030469 -0.008868
						CHANNELS 3 Zrotation Yrotation Xrotation
						JOINT LeftForeArm
						{
							OFFSET 0.259612 -0.012772 -0.027456
							CHANNELS 3 Zrotation Yrotation Xrotation
							JOINT LeftHand
							{
								OFFSET 0.249234 0.008986 -0.001171
								CHANNELS 3 Zrotation Yrotation Xrotation
								End Site
								{
									OFFSET 0.000000 0.000000 0.000000
								}
							}
						}
					}
				}
				JOINT RightShoulder
				{
					OFFSET -0.081759 0.118833 -0.038615
					CHANNELS 3 Zrotation Yrotation Xrotation
					JOINT RightArm
					{
						OFFSET -0.096012 0.032551 -0.009143
						CHANNELS 3 Zrotation Yrotation Xrotation
						JOINT RightForeArm
						{
							OFFSET -0.253742 -0.013329 -0.021401
							CHANNELS 3 Zrotation Yrotation Xrotation
							JOINT RightHand
							{
								OFFSET -0.255298 0.007772 -0.005559
								CHANNELS 3 Zrotation Yrotation Xrotation
								End Site
								{
									OFFSET 0.000000 0.000000 0.000000
								}
							}
						}
					}
				}
			}
		}
	}
}
MOTION
Frames: 16
Frame Time: 0.050000
-0.894870 0.774238 0.231721 -2.537862 48.116473 9.359386 47.062575 -4.614568 -43.354700 -29.245480 2.573030 20.008017 26.218671 38.784724 39.970264 0.000000 0.000000 0.000000 -7.814599 -13.537294 -52.219354 -10.411574 -5.749617 78.555752 -1.643975 8.309582 -21.978933 0.000000 0.000000 0.000000 -28.728472 -2.989616 57.809444 10.637543 -0.807637 -26.979325 8.778999 23.909291 25.966103 -11.601787 9.053618 -49.363937 0.000000 0.000000 0.000000 -27.537355 -27.067946 -1.444977 -18.330112 -13.708587 1.428800 55.384720 -75.356645 -46.530744 0.000000 0.000000 0.000000 21.836646 25.566172 24.656548 17.821645 31.228265 -0.387956 -58.754290 71.914686 -37.120655 0.000000 0.000000 0.000000 
-0.918275 0.776991 0.231436 -0.572797 48.541359 10.336277 45.491398 -4.938642 -41.984974 -26.846952 1.670181 16.720197 24.259630 36.740367 41.356154 0.000000 0.000000 0.000000 -6.568022 -13.276465 -53.083633 -12.868377 -3.390929 78.898206 -1.410192 10.532890 -23.155761 0.000000 0.000000 0.000000 -28.966668 -3.267634 59.610258 11.075655 -0.833819 -27.724092 9.236887 24.814259 26.530322 -11.357249 8.907865 -49.934427 0.000000 0.000000 0.000000 -27.527504 -27.629664 -1.350412 -19.841585 -14.338474 1.699413 51.953059 -75.473182 -44.164346 0.000000 0.000000 0.000000 19.818006 25.643005 23.522193 17.055087 32.154985 -0.129509 -57.774913 72.236943 -36.250130 0.000000 0.000000 0.000000 
-0.940904 0.779851 0.233095 1.145808 50.042875 11.581369 44.337044 -5.504502 -41.174230 -24.372602 0.790127 12.714589 21.996279 34.598582 42.876890 0.000000 0.000000 0.000000 -5.747127 -13.444793 -53.245947 -14.405452 -2.525778 78.355144 -1.445971 11.567042 -24.675683 0.000000 0.000000 0.000000 -27.861626 -4.471663 61.177198 9.881697 -0.479775 -28.070106 9.876040 24.590846 26.149457 -10.609194 8.846510 -49.277197 0.000000 0.000000 0.000000 -28.143791 -27.630763 -1.644943 -20.601285 -14.718556 1.919268 44.668886 -75.487649 -38.075916 0.000000 0.000000 0.000000 18.419242 25.326818 22.506773 16.656102 31.449325 -0.089907 -58.836191 73.696099 -37.756172 0.000000 0.000000 0.000000 
-0.961997 0.783367 0.236777 3.742587 51.455510 12.707260 42.828259 -5.952315 -40.003093 -23.181499 0.158127 9.486001 19.322366 32.280180 44.272856 0.000000 0.000000 0.000000 -4.677969 -13.024564 -52.695647 -16.537240 -1.371880 77.313506 -1.764249 9.962009 -25.516583 0.000000 0.000000 0.000000 -27.376369 -5.467653 62.962523 9.980908 -0.424633 -28.510770 9.732925 25.500993 26.015380 -10.488604 9.021515 -48.859867 0.000000 0.000000 0.000000 -29.777238 -28.456714 -1.950400 -21.090297 -13.660378 2.046089 36.646531 -75.801314 -31.294587 0.000000 0.000000 0.000000 18.481311 25.542866 22.840935 16.256632 31.064815 -0.163189 -55.358899 74.014215 -35.417685 0.000000 0.000000 0.000000 
-0.981423 0.786929 0.241427 5.713800 52.509628 13.536808 42.038682 -6.225205 -39.560820 -22.899132 -0.153808 8.049474 17.346351 30.824879 44.794235 0.000000 0.000000 0.000000 -4.661279 -12.810815 -51.373434 -17.209852 -1.506904 75.439002 -1.736231 9.971188 -26.630786 0.000000 0.000000 0.000000 -26.932134 -6.257194 64.276421 9.679961 -0.277217 -28.678543 10.145665 26.435133 25.444815 -9.885197 9.364309 -47.029545 0.000000 0.000000 0.000000 -30.733116 -27.966259 -2.971002 -21.538648 -12.833507 2.146608 20.710876 -76.198623 -18.430846 0.000000 0.000000 0.000000 18.641443 25.567278 23.093672 15.936234 30.059465 -0.287044 -47.125088 73.164440 -28.862136 0.000000 0.000000 0.000000 
-0.998818 0.790645 0.246217 7.359988 53.828780 14.945149 42.780651 -6.558066 -39.695467 -23.527496 -0.466716 6.232101 17.546520 30.789469 46.339950 0.000000 0.000000 0.000000 -3.518827 -12.392565 -51.243251 -18.568392 -0.960555 74.547086 -1.907759 9.070357 -27.526263 0.000000 0.000000 0.000000 -25.350492 -7.370449 63.907189 9.627911 -0.287267 -28.089024 10.256141 26.132619 25.154826 -10.886383 9.714033 -46.181998 0.000000 0.000000 0.000000 -32.933802 -27.366174 -4.484663 -22.305596 -10.961985 2.190409 4.740652 -74.096974 -5.004203 0.000000 0.000000 0.000000 18.381929 26.089359 23.419709 14.518790 28.829774 -0.520566 -39.605686 70.071372 -22.349322 0.000000 0.000000 0.000000 
-1.014857 0.795503 0.250388 9.924186 53.941931 16.876288 42.284638 -6.696343 -38.339425 -23.055385 -0.643848 5.363397 18.049486 30.911120 47.139892 0.000000 0.000000 0.000000 -3.367791 -12.099388 -50.637407 -19.301236 -0.468645 72.440595 -1.813844 8.934475 -28.309035 0.000000 0.000000 0.000000 -23.300272 -8.307573 63.694481 8.655540 0.067635 -28.245325 9.019400 26.506831 24.266274 -10.201923 9.852680 -44.756734 0.000000 0.000000 0.000000 -35.152867 -27.874903 -5.243607 -21.252529 -9.310498 2.099545 -7.209597 -72.867154 4.829574 0.000000 0.000000 0.000000 19.686520 25.329338 24.087077 14.144320 27.143741 -0.847259 -33.612775 66.455630 -17.401224 0.000000 0.000000 0.000000 
-1.029267 0.800781 0.252830 12.864298 54.801054 18.889450 39.726812 -6.835554 -37.136303 -23.389558 -0.422592 9.446897 18.943768 32.803960 40.150149 0.000000 0.000000 0.000000 -4.469931 -12.620712 -49.393723 -20.253310 -0.231733 71.117539 -1.350441 11.513786 -29.285261 0.000000 0.000000 0.000000 -22.952584 -8.815665 63.754621 9.238326 -0.092541 -27.165557 8.077197 26.254826 23.677032 -9.741795 9.977462 -43.355369 0.000000 0.000000 0.000000 -37.275072 -26.667864 -7.082944 -20.897914 -8.229620 2.110419 -19.199057 -70.479580 13.859798 0.000000 0.000000 0.000000 19.044911 25.800612 24.037767 14.640548 26.319876 -0.793954 -26.706042 61.369985 -11.922609 0.000000 0.000000 0.000000 
-1.042556 0.806294 0.254255 15.047921 54.624533 20.902631 37.687640 -6.765022 -36.612814 -26.288246 0.019153 16.018704 19.661902 34.161850 33.590074 0.000000 0.000000 0.000000 -4.440504 -12.866223 -49.871795 -20.420675 0.211949 69.800645 -1.081006 11.657112 -28.755961 0.000000 0.000000 0.000000 -22.400799 -9.126289 64.046434 8.409139 0.279203 -28.861521 8.428285 25.095430 25.316628 -10.267058 10.301184 -42.744290 0.000000 0.000000 0.000000 -37.720223 -26.246683 -6.904929 -21.472824 -7.473517 1.886057 -22.506676 -68.453832 15.689188 0.000000 0.000000 0.000000 18.860006 25.324075 23.357247 14.199110 26.032700 -0.878014 -23.422158 56.022583 -9.263146 0.000000 0.000000 0.000000 
-1.054931 0.810821 0.255348 17.000220 55.260046 22.350248 34.345599 -6.753368 -35.502968 -28.246411 0.154365 22.557161 18.352861 33.533024 27.255196 0.000000 0.000000 0.000000 -5.068414 -13.802952 -50.042292 -19.671203 -0.385459 68.955293 -0.704730 11.579294 -27.490553 0.000000 0.000000 0.000000 -22.069688 -9.764539 64.574300 6.725569 0.627541 -28.712695 8.034248 24.275334 24.686014 -8.884495 9.866542 -42.498936 0.000000 0.000000 0.000000 -37.658690 -26.675519 -6.054643 -21.150755 -5.963332 1.565823 -24.951854 -66.731552 16.945913 0.000000 0.000000 0.000000 18.740484 24.947550 22.903365 16.304013 25.432311 -0.736730 -21.879754 51.427229 -7.687503 0.000000 0.000000 0.000000 
-1.066711 0.812805 0.256499 17.394912 55.531559 22.692938 32.575425 -6.666910 -34.397025 -30.131777 0.339009 27.792370 18.638908 33.708879 24.825715 0.000000 0.000000 0.000000 -4.591597 -14.343475 -51.361504 -18.915149 -0.672387 69.286525 -0.512647 11.056595 -25.750448 0.000000 0.000000 0.000000 -22.868711 -9.404281 64.224045 7.045700 0.495714 -28.386535 7.789749 23.696420 25.808621 -8.573019 9.764882 -42.641477 0.000000 0.000000 0.000000 -36.056493 -25.205218 -6.639267 -22.716606 -5.072382 1.349311 -26.300758 -64.578634 16.467709 0.000000 0.000000 0.000000 18.905835 25.342951 23.141718 16.221723 25.645088 -0.744156 -21.954748 47.423070 -7.277486 0.000000 0.000000 0.000000 
-1.078570 0.812510 0.258001 16.411583 55.626955 22.272389 32.202577 -6.609283 -33.898485 -35.160212 0.900871 30.109390 23.188336 37.572504 25.999464 0.000000 0.000000 0.000000 -3.504799 -14.282828 -52.833684 -18.860826 -0.331548 69.574506 -0.002951 12.861396 -24.815916 0.000000 0.000000 0.000000 -23.348327 -9.106026 64.062499 6.615280 0.593930 -28.892099 8.209034 23.879106 26.353520 -9.406458 9.802057 -43.460363 0.000000 0.000000 0.000000 -34.419654 -25.135664 -6.194072 -22.793470 -3.497071 0.953814 -25.337411 -63.676852 15.254499 0.000000 0.000000 0.000000 18.886934 24.967402 22.966689 17.634854 25.575168 -0.642798 -22.066416 44.404286 -6.804046 0.000000 0.000000 0.000000 
-1.089824 0.811674 0.259151 14.590950 56.683315 21.322256 32.789713 -6.785308 -33.746173 -45.998149 1.422875 29.100280 36.869814 47.914932 31.547990 0.000000 0.000000 0.000000 -1.811223 -14.085180 -54.303355 -19.379555 0.084338 69.793936 0.728676 14.831078 -23.526374 0.000000 0.000000 0.000000 -24.812555 -8.563396 63.394469 8.190254 0.158514 -28.003341 8.456241 25.080069 26.734516 -9.748983 9.818702 -44.165757 0.000000 0.000000 0.000000 -33.243277 -24.567920 -7.308800 -23.388328 -1.101078 0.699953 -24.830844 -62.515499 14.130219 0.000000 0.000000 0.000000 18.004088 24.430580 22.539638 19.196777 25.964081 -0.390789 -21.957891 44.160034 -6.544996 0.000000 0.000000 0.000000 
-1.100190 0.811461 0.259710 12.151130 56.594388 19.419943 33.062992 -6.678226 -32.660329 -57.138990 0.951552 25.533396 54.598082 56.311109 43.361563 0.000000 0.000000 0.000000 -0.679642 -13.419560 -54.935462 -18.892578 -0.021577 69.302220 1.530043 16.879177 -22.373137 0.000000 0.000000 0.000000 -25.974332 -7.788922 62.779151 8.331732 0.031879 -27.393062 9.034254 26.247619 26.815078 -11.408513 10.119230 -44.816218 0.000000 0.000000 0.000000 -33.186746 -24.800636 -7.777914 -22.412274 0.702721 0.507692 -24.570049 -61.630611 13.920983 0.000000 0.000000 0.000000 17.589575 24.449442 22.567240 20.499361 26.300866 -0.184891 -21.550272 44.193680 -6.316959 0.000000 0.000000 0.000000 
-1.109420 0.811830 0.259830 10.289442 56.706020 17.980606 33.112902 -6.636694 -31.748290 -65.499937 -0.584031 21.835904 70.372682 60.808268 55.040003 0.000000 0.000000 0.000000 0.517735 -13.144628 -56.154172 -18.457140 0.078163 68.594405 2.670591 18.072100 -19.449314 0.000000 0.000000 0.000000 -26.946838 -7.195675 62.117789 8.936440 -0.083698 -27.819477 8.862120 27.129340 27.580707 -11.540886 10.373380 -44.966042 0.000000 0.000000 0.000000 -33.235978 -24.659772 -8.420194 -21.380741 1.739354 0.385922 -22.368837 -59.837805 12.417362 0.000000 0.000000 0.000000 18.471488 24.667002 23.469092 20.463822 27.108218 -0.182588 -21.939604 44.145303 -6.618631 0.000000 0.000000 0.000000 
-1.117575 0.813691 0.260219 8.778328 57.227548 16.517337 32.808236 -6.611761 -30.413913 -71.904334 -3.100267 18.189331 83.884236 63.000905 65.496440 0.000000 0.000000 0.000000 1.158341 -12.853898 -56.195927 -17.488687 -0.692691 67.671581 3.208663 17.518334 -17.328658 0.000000 0.000000 0.000000 -26.791469 -7.184398 61.418352 8.288513 0.091536 -27.194167 8.603351 26.827357 26.872668 -13.482108 10.932416 -44.849607 0.000000 0.000000 0.000000 -34.461886 -24.693154 -8.665442 -19.800852 2.641387 0.288419 -20.599299 -58.146479 11.679254 0.000000 0.000000 0.000000 19.907729 25.036379 24.524355 19.564956 27.822193 -0.341718 -21.278233 42.960776 -6.433359 0.000000 0.000000 0.000000 
